<?xml version="1.0" encoding="UTF-8" standalone="no"?>
<!DOCTYPE svg PUBLIC "-//W3C//DTD SVG 1.1//EN" "http://www.w3.org/Graphics/SVG/1.1/DTD/svg11.dtd">
<svg width="100%" height="100%" viewBox="0 0 70 70" version="1.1" xmlns="http://www.w3.org/2000/svg" xmlns:xlink="http://www.w3.org/1999/xlink" xml:space="preserve" xmlns:serif="http://www.serif.com/" style="fill-rule:evenodd;clip-rule:evenodd;stroke-linejoin:round;stroke-miterlimit:2;">
    <g transform="matrix(5.46474,0,0,1.68249,-1563.45,-2964.02)">
        <g transform="matrix(0.0885667,0,0,0.470804,252.37,646.135)">
            <path d="M461.816,2375.33C461.816,2372.4 457.927,2370.03 453.138,2370.03C448.349,2370.03 444.46,2372.4 444.46,2375.33L444.46,2451.95C444.46,2454.88 448.349,2457.26 453.138,2457.26C457.927,2457.26 461.816,2454.88 461.816,2451.95L461.816,2375.33Z" style="fill:rgb(43,43,43);"/>
        </g>
        <g transform="matrix(5.42315e-18,0.287665,-0.144952,2.88284e-17,642.364,1652.13)">
            <path d="M461.816,2375.33C461.816,2372.4 457.927,2370.03 453.138,2370.03C448.349,2370.03 444.46,2372.4 444.46,2375.33L444.46,2451.95C444.46,2454.88 448.349,2457.26 453.138,2457.26C457.927,2457.26 461.816,2454.88 461.816,2451.95L461.816,2375.33Z" style="fill:rgb(43,43,43);"/>
        </g>
    </g>
</svg>
